# xmcd
#
# Track frame offsets:
#	150
#	9564
#	20608
#	30598
#	40966
#	53418
#	63078
#	74684
#	83016
#	93107
#	100577
#	110727
#	122186
#	134879
#	145952
#	156856
#	167073
#	178209
#	190091
#	201799
#	212882
#	223753
#	233037
#	243693
#	254137
#	264197
#	274696
#	285095
#	298466
#	311722
#
# Disc length: 4295 seconds
#
# Revision: 0
# Processed by: cddbd v1.4PL0 Copyright (c) Steve Scherf et al.
# Submitted via: EasyCDDAExtractor 4.6.0.1
#
DISCID=c910c51e
DTITLE=Various Artist - A Million Dollars Worth Of Doo-Wop  Vol 10
DYEAR=1900
DGENRE=Blues
TTITLE0=Jupiters - I Want
TTITLE1=Bobby Starr and group - Please Give Me A Chance
TTITLE2=Whirlwinds - Heartbeat
TTITLE3=Lions - Two Timing Lover
TTITLE4=Climatics - My Gift From Heaven
TTITLE5=Sunsets - Lydia
TTITLE6=Creators - Out Of A Million Girls
TTITLE7=Volchords - Bongo Love
TTITLE8=Cardinals - Why Don't You Write Me
TTITLE9=Spotlites - Trav'lin
TTITLE10=Sunny Boys - Chapel Bells
TTITLE11=Bernie Williams and group - Why Fool Yourself
TTITLE12=Jerry Carmen and group - Cherry Pie
TTITLE13=Sevilles - Girl In The Drug Store
TTITLE14=Frankie Ervin and group - Some Other Guy
TTITLE15=Beatnicks - Blue Angel
TTITLE16=Arrows - Shufflin Jive
TTITLE17=Chess Men - Lola
TTITLE18=Extremes - The Bells
TTITLE19=Del-Rios - Oh What A Feeling
TTITLE20=Millionaires (Rocky and the) - Remember Me
TTITLE21=True-Tones - Honey Honey
TTITLE22=Rollettes - An Understanding
TTITLE23=Fabulous Cry-Tels - Left Front Row
TTITLE24=Rivals - I Need You
TTITLE25=Pearls - It Must Be Love
TTITLE26=Vibes - What's Her Name
TTITLE27=Sonics - It's You
TTITLE28=John Baker and group - Satisfy Me
TTITLE29=James Artamer and group - Congratulations
EXTD=
EXTT0=
EXTT1=
EXTT2=
EXTT3=
EXTT4=
EXTT5=
EXTT6=
EXTT7=
EXTT8=
EXTT9=
EXTT10=
EXTT11=
EXTT12=
EXTT13=
EXTT14=
EXTT15=
EXTT16=
EXTT17=
EXTT18=
EXTT19=
EXTT20=
EXTT21=
EXTT22=
EXTT23=
EXTT24=
EXTT25=
EXTT26=
EXTT27=
EXTT28=
EXTT29=
PLAYORDER=
